<svg xmlns="http://www.w3.org/2000/svg" viewBox="0 0 256 256" role="img" aria-labelledby="title desc">
  <title id="title">NIRA &amp; CO Coventry tower logo</title>
  <desc id="desc">A tall Coventry-style city building with gold windows and the NIRA ampersand mark.</desc>
  <defs>
    <linearGradient id="sky" x1="34" y1="26" x2="222" y2="238" gradientUnits="userSpaceOnUse">
      <stop stop-color="#8fd6a8"/>
      <stop offset="1" stop-color="#116447"/>
    </linearGradient>
    <linearGradient id="tower" x1="82" y1="44" x2="174" y2="214" gradientUnits="userSpaceOnUse">
      <stop stop-color="#f5f7f2"/>
      <stop offset="1" stop-color="#bfd0c3"/>
    </linearGradient>
    <linearGradient id="gold" x1="74" y1="73" x2="190" y2="199" gradientUnits="userSpaceOnUse">
      <stop stop-color="#f5d889"/>
      <stop offset="1" stop-color="#bf7c1f"/>
    </linearGradient>
  </defs>
  <rect width="256" height="256" rx="48" fill="#13221d"/>
  <circle cx="128" cy="128" r="94" fill="url(#sky)"/>
  <path d="M43 190h170" stroke="#dff1e7" stroke-width="10" stroke-linecap="round" opacity=".8"/>
  <path d="M76 92h104v103H76z" fill="#13221d" opacity=".28"/>
  <path d="M90 65h76l14 35v99H76V100l14-35Z" fill="url(#tower)"/>
  <path d="M99 45h58l9 20H90l9-20Z" fill="#13221d"/>
  <path d="M76 100h104" stroke="#13221d" stroke-width="8"/>
  <path d="M96 116h16v16H96zM120 116h16v16h-16zM144 116h16v16h-16zM96 145h16v16H96zM120 145h16v16h-16zM144 145h16v16h-16z" fill="url(#gold)"/>
  <path d="M112 199v-25h32v25" fill="#13221d"/>
  <path d="M63 199h130" stroke="#13221d" stroke-width="12" stroke-linecap="round"/>
  <path d="M63 84c21-18 41-27 65-27s45 9 65 27" fill="none" stroke="#dff1e7" stroke-width="8" stroke-linecap="round" opacity=".72"/>
  <text x="128" y="229" text-anchor="middle" font-family="Arial, Helvetica, sans-serif" font-size="24" font-weight="900" fill="#f5d889">NIRA &amp; CO</text>
</svg>
